<?xml version="1.0" encoding="utf-8"?>
<!-- Generator: Adobe Illustrator 18.0.0, SVG Export Plug-In . SVG Version: 6.00 Build 0)  -->
<!DOCTYPE svg PUBLIC "-//W3C//DTD SVG 1.1//EN" "http://www.w3.org/Graphics/SVG/1.1/DTD/svg11.dtd">
<svg version="1.1" id="_x32_" xmlns="http://www.w3.org/2000/svg" xmlns:xlink="http://www.w3.org/1999/xlink" x="0px" y="0px"
	 viewBox="0 0 512 512" style="enable-background:new 0 0 512 512;" xml:space="preserve">
<style type="text/css">
	.st0{fill:#4B4B4B;}
</style>
<g>
	<path class="st0" d="M335.413,62.069l32.308-47.853c2.808-4.158,1.702-9.856-2.455-12.664c-4.158-2.807-9.856-1.701-12.664,2.456
		L319.235,53.43C299.968,44.637,278.554,39.737,256,39.737c-22.553,0-43.967,4.9-63.234,13.694L159.398,4.008
		c-2.807-4.157-8.506-5.263-12.663-2.456c-4.158,2.808-5.263,8.505-2.456,12.664l32.308,47.853
		c-40.562,24.799-68.666,67.984-72.608,117.976h304.044C404.08,130.053,375.975,86.87,335.413,62.069z M193.951,133.99
		c-11.754,0-21.283-9.528-21.283-21.283c0-11.755,9.529-21.283,21.283-21.283c11.754,0,21.283,9.528,21.283,21.283
		C215.234,124.462,205.705,133.99,193.951,133.99z M318.05,133.99c-11.754,0-21.283-9.528-21.283-21.283
		c0-11.755,9.529-21.283,21.283-21.283c11.754,0,21.283,9.528,21.283,21.283C339.333,124.462,329.804,133.99,318.05,133.99z"/>
	<path class="st0" d="M101.653,244.206v175.82c0,13.804,11.28,25.084,25.084,25.084h41.472v41.046
		c0,14.198,11.615,25.844,25.844,25.844c14.198,0,25.844-11.645,25.844-25.844V445.11h72.971v41.046
		c0,14.198,11.615,25.844,25.844,25.844c14.199,0,25.844-11.645,25.844-25.844V445.11h36.059c13.774,0,25.084-11.28,25.084-25.084
		v-175.82v-37.245H101.653V244.206z"/>
	<path class="st0" d="M46.75,206.961c-16.426,0-29.864,13.438-29.864,29.864V335.2c0,16.425,13.439,29.864,29.864,29.864
		c16.425,0,29.864-13.439,29.864-29.864v-98.375C76.614,220.4,63.175,206.961,46.75,206.961z"/>
	<path class="st0" d="M465.251,206.961c-16.425,0-29.864,13.438-29.864,29.864V335.2c0,16.425,13.439,29.864,29.864,29.864
		c16.425,0,29.864-13.439,29.864-29.864v-98.375C495.114,220.4,481.675,206.961,465.251,206.961z"/>
</g>
</svg>
